# xmcd CD database file
#
# Track frame offsets:
#	150
#	20320
#	48261
#	74977
#	98936
#	116779
#	134056
#	147184
#	167598
#	185700
#	204922
#	223417
#	241842
#	260560
#	281318
#	298304
#	315743
#	334673
#
# Disc length: 4768 seconds
#
# Revision: 1
# Processed by: cddbd v1.5.1PL0 Copyright (c) Steve Scherf et al.
# Submitted via: CDex 1.51
#
DISCID=28129e12
DTITLE=Various Artist - Pocity s hudbou
DYEAR=1900
DGENRE=New Age
TTITLE0=Kitaro
TTITLE1=Asha
TTITLE2=Mike Oldfield
TTITLE3=P.Thornton
TTITLE4=Symbian
TTITLE5=Vangelis 1492
TTITLE6=Vangelis 1492
TTITLE7=Kitaro
TTITLE8=M.Brennan
TTITLE9=Enya
TTITLE10=Oliver Shanti
TTITLE11=Indians Sacred
TTITLE12=Sarah Brightman
TTITLE13=Luar na Lubre
TTITLE14=D.Arkenstone
TTITLE15=Sarah Brightman
TTITLE16=Mike Oldfield
TTITLE17=Giuseppe Verdi-Nabucco
EXTD=
EXTT0=
EXTT1=
EXTT2=
EXTT3=
EXTT4=
EXTT5=
EXTT6=
EXTT7=
EXTT8=
EXTT9=
EXTT10=
EXTT11=
EXTT12=
EXTT13=
EXTT14=
EXTT15=
EXTT16=
EXTT17=
PLAYORDER=
